# Blender v3.3.1 OBJ File: ''
# www.blender.org
mtllib Heart.mtl
o Cube_Cube.001
v -1.060660 0.117851 0.560000
v 0.000000 1.220962 0.639889
v -1.060660 0.117851 -0.560000
v -0.000000 1.220962 -0.639889
v 0.000000 -0.793594 0.414177
v 1.060660 0.117851 0.560000
v 0.000000 -0.793594 -0.414177
v 1.060660 0.117851 -0.560000
v -1.590990 0.883884 -0.420000
v -1.590991 0.883883 0.420000
v -0.883884 1.590990 0.420000
v -0.883884 1.590991 -0.420000
v 0.883883 1.590990 0.420000
v 0.883883 1.590990 -0.420000
v 1.590990 0.883884 -0.420000
v 1.590990 0.883884 0.420000
v -1.237437 -0.058926 0.000000
v -0.576979 0.608603 0.784234
v -0.000000 1.376502 0.000000
v -0.576980 0.608603 -0.784233
v -0.481225 -0.431030 -0.536019
v 0.576979 0.608603 -0.784233
v 0.481225 -0.431030 -0.536019
v 0.000000 -1.204701 -0.000000
v 1.237437 -0.058926 -0.000000
v 0.481226 -0.431030 0.536019
v -0.481225 -0.431030 0.536019
v 0.576980 0.608603 0.784233
v -1.707205 0.845145 0.000000
v -1.276175 1.276175 0.512037
v -0.845146 1.707205 0.000000
v -1.276175 1.276175 -0.512037
v -0.564976 1.494123 -0.544418
v -0.564976 1.494123 0.544419
v -1.474776 0.572342 0.536019
v -1.474776 0.572342 -0.536018
v 0.845145 1.707205 -0.000000
v 1.276175 1.276175 -0.512037
v 1.707205 0.845146 -0.000000
v 1.276175 1.276175 0.512037
v 0.564976 1.494123 0.544419
v 0.564976 1.494123 -0.544419
v 1.474776 0.572342 0.536018
v 1.474776 0.572342 -0.536019
v -0.411388 1.666546 0.000000
v -0.000000 0.038869 -0.767563
v 0.643271 -0.637815 -0.000000
v 0.000000 0.038869 0.767563
v -0.643271 -0.637815 0.000000
v 0.411388 1.666546 -0.000000
v -1.357471 1.357471 0.000000
v -1.648279 0.406477 0.000000
v -1.024923 1.031601 -0.739692
v -1.024923 1.031601 0.739693
v 1.357471 1.357471 -0.000000
v 1.024923 1.031601 0.739693
v 1.024923 1.031601 -0.739693
v 1.648279 0.406477 -0.000000
vt 0.875000 0.625000
vt 0.875000 0.750000
vt 0.875000 0.750000
vt 0.875000 0.500000
vt 0.875000 0.625000
vt 0.875000 0.500000
vt 0.875000 0.625000
vt 0.875000 0.750000
vt 0.499132 0.284722
vt 0.375000 0.375000
vt 0.375000 0.250000
vt 0.586806 0.375868
vt 0.495660 0.378472
vt 0.494792 0.500000
vt 0.375000 0.500000
vt 0.494792 0.625000
vt 0.375000 0.625000
vt 0.583333 0.625000
vt 0.494792 0.750000
vt 0.375000 0.750000
vt 0.495660 0.871528
vt 0.375000 0.875000
vt 0.586806 0.874132
vt 0.499132 0.965278
vt 0.375000 1.000000
vt 0.250000 0.500000
vt 0.159722 0.625000
vt 0.125000 0.500000
vt 0.253472 0.625000
vt 0.250000 0.750000
vt 0.125000 0.750000
vt 0.875000 0.500000
vt 0.875000 0.500000
vt 0.875000 0.750000
vt 0.871528 0.625000
vt 0.875000 0.750000
vt 0.840278 0.625000
vt 0.875000 0.500000
vt 0.375000 0.000000
vt 0.500000 0.121528
vt 0.375000 0.125000
vt 0.625000 0.000000
vt 0.500000 0.000000
vt 0.625000 0.250000
vt 0.500000 0.215278
vt 0.375000 0.250000
vt 0.125000 0.500000
vt 0.125000 0.750000
vt 0.128472 0.625000
vt 0.125000 0.750000
vt 0.125000 0.625000
vt 0.125000 0.500000
vt 0.625000 0.250000
vt 0.625000 0.250000
vt 0.500000 0.250000
vt 0.500000 0.996528
vt 0.375000 1.000000
vt 0.625000 1.000000
vt 0.625000 1.000000
vt 0.500000 1.000000
vt 0.375000 1.000000
vt 0.625000 0.500000
vt 0.750000 0.625000
vt 0.659722 0.625000
vt 0.750000 0.500000
vt 0.750000 0.750000
vt 0.625000 0.750000
vt 0.625000 1.000000
vt 0.625000 1.000000
vt 0.583333 0.750000
vt 0.620660 0.875000
vt 0.625000 0.875000
vt 0.625000 1.000000
vt 0.583333 0.500000
vt 0.620660 0.375000
vt 0.620660 0.500000
vt 0.625000 0.250000
vt 0.625000 0.250000
vt 0.625000 0.375000
vt 0.620660 0.750000
vt 0.623264 0.625000
vt 0.625000 0.125000
vt 0.375000 0.250000
vn 0.3949 0.8927 0.2170
vn 0.5310 0.7532 -0.3883
vn 0.0898 0.9577 -0.2733
vn 0.1509 0.9294 0.3369
vn -0.1924 -0.2446 -0.9503
vn -0.0000 -0.0292 -0.9996
vn 0.2151 -0.2455 -0.9452
vn -0.0612 -0.3900 -0.9188
vn 0.5303 -0.6017 -0.5973
vn 0.6273 -0.6439 -0.4380
vn 0.6273 -0.6439 0.4380
vn 0.5303 -0.6017 0.5973
vn -0.0612 -0.3900 0.9188
vn 0.2151 -0.2455 0.9452
vn 0.0000 -0.0292 0.9996
vn -0.1924 -0.2446 0.9503
vn -0.6191 -0.6714 -0.4074
vn -0.4677 -0.7679 -0.4376
vn -0.4677 -0.7679 0.4376
vn -0.6191 -0.6714 0.4074
vn -0.3949 0.8927 -0.2170
vn -0.5310 0.7532 0.3883
vn -0.0898 0.9577 0.2733
vn -0.1509 0.9294 -0.3369
vn -0.8133 0.5552 0.1738
vn -0.5796 0.7856 0.2167
vn -0.5796 0.7856 -0.2167
vn -0.8133 0.5552 -0.1738
vn -0.6858 -0.6034 -0.4070
vn -0.6843 -0.6041 0.4084
vn -0.9528 -0.1280 0.2754
vn -0.9105 -0.2061 -0.3585
vn -0.0365 0.2617 -0.9645
vn -0.2610 -0.1764 -0.9491
vn -0.5232 0.2271 -0.8214
vn -0.1683 0.5208 -0.8369
vn -0.2498 -0.1774 0.9519
vn 0.1474 0.2567 0.9552
vn -0.2300 0.5259 0.8188
vn -0.5125 0.1252 0.8495
vn 0.8133 0.5552 -0.1738
vn 0.5796 0.7856 -0.2167
vn 0.5796 0.7856 0.2167
vn 0.8133 0.5552 0.1738
vn 0.0365 0.2617 0.9645
vn 0.2610 -0.1764 0.9491
vn 0.5232 0.2271 0.8214
vn 0.1683 0.5208 0.8369
vn 0.2498 -0.1774 -0.9519
vn -0.1474 0.2567 -0.9552
vn 0.2300 0.5259 -0.8188
vn 0.5125 0.1252 -0.8495
vn 0.6858 -0.6034 0.4070
vn 0.6843 -0.6041 -0.4084
vn 0.9528 -0.1280 -0.2754
vn 0.9105 -0.2061 0.3585
vn 0.5310 0.7532 0.3883
vn 0.3949 0.8927 -0.2170
vn 0.1509 0.9294 -0.3369
vn 0.0898 0.9577 0.2733
vn -0.2151 -0.2455 -0.9452
vn 0.0000 0.2294 -0.9733
vn 0.1924 -0.2446 -0.9503
vn 0.0612 -0.3900 -0.9188
vn 0.4677 -0.7679 -0.4376
vn 0.6191 -0.6714 -0.4074
vn 0.6191 -0.6714 0.4074
vn 0.4677 -0.7679 0.4376
vn 0.0612 -0.3900 0.9188
vn 0.1924 -0.2446 0.9503
vn 0.0000 0.2294 0.9733
vn -0.2151 -0.2455 0.9452
vn -0.6273 -0.6439 -0.4380
vn -0.5303 -0.6017 -0.5973
vn -0.5303 -0.6017 0.5973
vn -0.6273 -0.6439 0.4380
vn -0.5310 0.7532 -0.3883
vn -0.3949 0.8927 0.2170
vn -0.1509 0.9294 0.3369
vn -0.0898 0.9577 -0.2733
vn -0.7856 0.5796 0.2167
vn -0.5552 0.8133 0.1738
vn -0.5552 0.8133 -0.1738
vn -0.7856 0.5796 -0.2167
vn -0.6843 -0.6041 -0.4084
vn -0.6858 -0.6034 0.4070
vn -0.9105 -0.2061 0.3585
vn -0.9528 -0.1280 -0.2754
vn 0.1474 0.2567 -0.9552
vn -0.2498 -0.1774 -0.9519
vn -0.5125 0.1252 -0.8495
vn -0.2300 0.5259 -0.8188
vn -0.2610 -0.1764 0.9491
vn -0.0365 0.2617 0.9645
vn -0.1683 0.5208 0.8369
vn -0.5232 0.2271 0.8214
vn 0.7856 0.5796 -0.2167
vn 0.5552 0.8133 -0.1738
vn 0.5552 0.8133 0.1738
vn 0.7856 0.5796 0.2167
vn -0.1474 0.2567 0.9552
vn 0.2498 -0.1774 0.9519
vn 0.5125 0.1252 0.8495
vn 0.2300 0.5259 0.8188
vn 0.2610 -0.1764 -0.9491
vn 0.0365 0.2617 -0.9645
vn 0.1683 0.5208 -0.8369
vn 0.5232 0.2271 -0.8214
vn 0.6843 -0.6041 0.4084
vn 0.6858 -0.6034 -0.4070
vn 0.9105 -0.2061 -0.3585
vn 0.9528 -0.1280 0.2754
usemtl None
s off
f 19/1/1 34/2/1 2/3/1
f 19/1/2 33/4/2 45/5/2
f 45/5/3 12/6/3 31/7/3
f 45/5/4 11/8/4 34/2/4
f 20/9/5 21/10/5 3/11/5
f 20/9/6 22/12/6 46/13/6
f 22/12/7 23/14/7 46/13/7
f 46/13/8 7/15/8 21/10/8
f 7/15/9 47/16/9 24/17/9
f 23/14/10 25/18/10 47/16/10
f 25/18/11 26/19/11 47/16/11
f 47/16/12 5/20/12 24/17/12
f 5/20/13 48/21/13 27/22/13
f 26/19/14 28/23/14 48/21/14
f 28/23/15 18/24/15 48/21/15
f 27/22/16 18/24/16 1/25/16
f 21/26/17 17/27/17 3/28/17
f 7/15/18 49/29/18 21/26/18
f 49/29/19 5/20/19 27/30/19
f 17/27/20 27/30/20 1/31/20
f 19/1/21 42/32/21 4/33/21
f 19/1/22 41/34/22 50/35/22
f 50/35/23 13/36/23 37/37/23
f 50/35/24 14/38/24 42/32/24
f 10/39/25 51/40/25 29/41/25
f 11/42/26 51/40/26 30/43/26
f 51/40/27 12/44/27 32/45/27
f 51/40/28 9/46/28 29/41/28
f 17/27/29 36/47/29 3/28/29
f 17/27/30 35/48/30 52/49/30
f 52/49/31 10/50/31 29/51/31
f 52/49/32 9/52/32 36/47/32
f 20/9/33 33/53/33 4/54/33
f 3/11/34 53/55/34 20/9/34
f 53/55/35 9/46/35 32/45/35
f 53/55/36 12/44/36 33/53/36
f 1/25/37 54/56/37 35/57/37
f 18/24/38 34/58/38 54/56/38
f 54/56/39 11/59/39 30/60/39
f 54/56/40 10/61/40 35/57/40
f 15/62/41 55/63/41 39/64/41
f 14/38/42 55/63/42 38/65/42
f 55/63/43 13/36/43 40/66/43
f 55/63/44 16/67/44 39/64/44
f 28/23/45 41/68/45 2/69/45
f 6/70/46 56/71/46 28/23/46
f 56/71/47 16/67/47 40/72/47
f 56/71/48 13/73/48 41/68/48
f 8/74/49 57/75/49 44/76/49
f 22/12/50 42/77/50 57/75/50
f 57/75/51 14/78/51 38/79/51
f 57/75/52 15/62/52 44/76/52
f 25/18/53 43/80/53 6/70/53
f 25/18/54 44/76/54 58/81/54
f 58/81/55 15/62/55 39/64/55
f 58/81/56 16/67/56 43/80/56
f 19/1/57 45/5/57 34/2/57
f 19/1/58 4/33/58 33/4/58
f 45/5/59 33/4/59 12/6/59
f 45/5/60 31/7/60 11/8/60
f 20/9/61 46/13/61 21/10/61
f 20/9/62 4/54/62 22/12/62
f 22/12/63 8/74/63 23/14/63
f 46/13/64 23/14/64 7/15/64
f 7/15/65 23/14/65 47/16/65
f 23/14/66 8/74/66 25/18/66
f 25/18/67 6/70/67 26/19/67
f 47/16/68 26/19/68 5/20/68
f 5/20/69 26/19/69 48/21/69
f 26/19/70 6/70/70 28/23/70
f 28/23/71 2/69/71 18/24/71
f 27/22/72 48/21/72 18/24/72
f 21/26/73 49/29/73 17/27/73
f 7/15/74 24/17/74 49/29/74
f 49/29/75 24/17/75 5/20/75
f 17/27/76 49/29/76 27/30/76
f 19/1/77 50/35/77 42/32/77
f 19/1/78 2/3/78 41/34/78
f 50/35/79 41/34/79 13/36/79
f 50/35/80 37/37/80 14/38/80
f 10/39/81 30/43/81 51/40/81
f 11/42/82 31/82/82 51/40/82
f 51/40/83 31/82/83 12/44/83
f 51/40/84 32/45/84 9/46/84
f 17/27/85 52/49/85 36/47/85
f 17/27/86 1/31/86 35/48/86
f 52/49/87 35/48/87 10/50/87
f 52/49/88 29/51/88 9/52/88
f 20/9/89 53/55/89 33/53/89
f 3/11/90 36/83/90 53/55/90
f 53/55/91 36/83/91 9/46/91
f 53/55/92 32/45/92 12/44/92
f 1/25/93 18/24/93 54/56/93
f 18/24/94 2/69/94 34/58/94
f 54/56/95 34/58/95 11/59/95
f 54/56/96 30/60/96 10/61/96
f 15/62/97 38/65/97 55/63/97
f 14/38/98 37/37/98 55/63/98
f 55/63/99 37/37/99 13/36/99
f 55/63/100 40/66/100 16/67/100
f 28/23/101 56/71/101 41/68/101
f 6/70/102 43/80/102 56/71/102
f 56/71/103 43/80/103 16/67/103
f 56/71/104 40/72/104 13/73/104
f 8/74/105 22/12/105 57/75/105
f 22/12/106 4/54/106 42/77/106
f 57/75/107 42/77/107 14/78/107
f 57/75/108 38/79/108 15/62/108
f 25/18/109 58/81/109 43/80/109
f 25/18/110 8/74/110 44/76/110
f 58/81/111 44/76/111 15/62/111
f 58/81/112 39/64/112 16/67/112
