# Blender v3.3.1 OBJ File: ''
# www.blender.org
mtllib Triangle.mtl
o Cone
v 0.000000 -1.110703 -0.027826
v -0.866025 0.298836 -0.540856
v 0.866025 0.298836 -0.540856
v -0.000000 0.513030 1.509539
vt 0.250000 0.490000
vt 0.250000 0.250000
vt 0.457846 0.130000
vt 0.750000 0.490000
vt 0.957846 0.130000
vt 0.542154 0.130000
vt 0.042154 0.130000
vn -0.8402 -0.3729 0.3938
vn 0.0000 -0.3420 -0.9397
vn 0.0000 0.9946 -0.1039
vn 0.8402 -0.3729 0.3938
usemtl None
s off
f 1/1/1 4/2/1 2/3/1
f 1/4/2 2/5/2 3/6/2
f 2/3/3 4/2/3 3/7/3
f 3/7/4 4/2/4 1/1/4
